<svg width="172" height="36" fill="none" xmlns="http://www.w3.org/2000/svg"><path d="M36.182 0H0v36h36.182V0z" fill="#000"/><path d="M35.22 1.065H1.07v33.976h34.15V1.065z" fill="#FE0"/><path d="M2.89 28.118l4.496 4.474L17.77 22.047l10.812 10.758 4.496-4.474-10.705-10.65 2.034-2.024v-4.26l1.285-1.066v3.515l1.605 1.385 4.925-4.9 1.605 1.172c.964-3.408-4.496-11.29-8.992-6.923L19.59 9.799l1.07 1.278-2.676 2.556-2.462-2.556 1.392-1.172-5.781-5.538C6.851.852 2.355 6.177 2.248 11.503l1.606-1.278 4.817 5.219 1.713-1.385v-3.195l1.07.852v4.154L13.595 18 2.89 28.118zm158.004-13.313h3.533v-4.048h3.318v4.048h3.533V4.793h-3.533v3.515h-3.318V4.793h-3.533v10.012zm-21.517-7.136c.749-.533 1.82-.852 2.676-.852.429 0 1.392.106 1.392.958s-.856.852-1.178.852h-1.712v2.237h1.498c.536 0 1.499 0 1.499.852 0 .32-.214.959-1.392.959-1.284 0-2.034-.32-3.104-.959l-.963 2.343a9.449 9.449 0 004.496 1.172c4.067 0 4.603-2.343 4.603-3.089 0-1.065-.643-2.13-2.034-2.45.856-.426 1.498-1.278 1.498-2.343 0-2.343-2.462-2.876-4.067-2.876-1.392 0-3.105.426-4.175.959l.963 2.237zm-7.814-4.26c1.605 0 3.318-.64 4.067-2.344l-2.355-.852c-.321 1.172-1.284 1.278-1.712 1.278-.429 0-1.392-.106-1.713-1.278l-2.248.852c.749 1.81 2.462 2.343 3.961 2.343zm-5.46 1.384V14.91h3.426l3.532-5.538v5.538h3.533V4.793h-3.426l-3.532 5.432V4.793h-3.533zm-23.658 7.882V7.03c-1.177 0-2.462.852-2.462 2.769.107 2.024 1.285 2.876 2.462 2.876zm3.105-5.645v5.645c1.177 0 2.462-.853 2.462-2.77s-1.285-2.875-2.462-2.875zm-3.319 12.248v-4.26c-2.141 0-5.566-.852-5.566-5.22 0-4.366 3.532-5.218 5.566-5.218V.213h3.533V4.58c2.141 0 5.566.852 5.566 5.219s-3.532 5.219-5.566 5.219v4.26h-3.533zm-15.736-6.603V7.03c-1.177 0-2.462.852-2.462 2.769 0 2.024 1.178 2.876 2.462 2.876zM89.6 7.03v5.645c1.177 0 2.462-.853 2.462-2.77-.107-1.917-1.285-2.875-2.462-2.875zm-3.32 12.248v-4.26c-2.14 0-5.567-.852-5.567-5.22 0-4.366 3.426-5.218 5.567-5.218V.213h3.533V4.58c2.14 0 5.566.852 5.566 5.219s-3.532 5.219-5.566 5.219v4.26H86.28zM73.97 3.408c1.605 0 3.318-.639 3.96-2.343L75.576.213c-.321 1.172-1.284 1.278-1.713 1.278-.428 0-1.391-.106-1.712-1.278l-2.248.852c.749 1.81 2.462 2.343 4.067 2.343zm-5.567 1.385V14.91h3.425l3.533-5.538v5.538h3.533V4.793h-3.426l-3.532 5.432V4.793h-3.533zm-21.73-1.598v3.409h1.284c1.82 0 1.927-1.066 1.927-1.705 0-.745-.215-1.704-1.927-1.704h-1.285zm-3.855 11.61V0h5.995c4.068 0 5.245 2.876 5.245 4.9 0 2.023-1.177 4.899-5.138 4.899h-2.14v5.006h-3.962zm81.036-10.012V14.91h-3.532v-1.17c-.643.958-1.82 1.49-2.998 1.49-2.997 0-5.031-2.555-5.031-5.431s2.034-5.326 5.031-5.326c1.178 0 2.355.426 3.105 1.278v-.958h3.425zm-5.673 2.77c-1.499 0-2.248 1.064-2.248 2.236 0 1.278.856 2.237 2.248 2.237 1.391 0 2.248-.96 2.248-2.237 0-1.278-.857-2.237-2.248-2.237zm-52.026-2.77V14.91h-3.533v-1.17c-.642.958-1.82 1.49-2.997 1.49-2.997 0-5.031-2.555-5.031-5.431s2.034-5.326 5.03-5.326c1.178 0 2.356.426 3.105 1.278v-.958h3.426zm-5.674 2.77c-1.498 0-2.248 1.064-2.248 2.236 0 1.278.857 2.237 2.248 2.237 1.392 0 2.248-.96 2.248-2.237 0-1.278-.856-2.237-2.248-2.237zm98.699 2.662v.426h-7.493c0 1.491.749 2.237 2.248 2.237.749 0 1.284-.213 1.713-.959h3.425c-.535 2.45-2.783 3.515-5.138 3.515-3.319 0-5.781-1.917-5.781-5.326 0-3.408 2.248-5.432 5.567-5.432 3.425-.106 5.459 2.13 5.459 5.539zm-7.493-1.704h4.068c-.214-.959-1.071-1.598-2.034-1.598-.964 0-1.82.533-2.034 1.598zM47.422 32.911h.642c.642 0 1.178 0 1.606-.106.428-.107.75-.213 1.07-.426.322-.213.536-.64.643-1.172.107-.533.107-.852-.107-1.065-.214-.213-.536-.426-.857-.426-.32 0-.856-.107-1.605-.107h-.643l-.749 3.302zm8.457-11.822l-.75 3.301h-5.994l-.428 2.024h2.248c1.177 0 2.034.213 2.783.533.75.32 1.177.958 1.498 1.597.215.746.322 1.598 0 2.663-.214.959-.642 1.917-1.284 2.556-.642.746-1.392 1.278-2.248 1.598a8.83 8.83 0 01-2.998.532h-5.994l3.211-15.017h9.956v.213zm9.421 4.58l-2.677 4.793h3.212l-.535-4.793zm-4.39 7.775L59.306 36H55.13l8.992-15.018h4.282L70.866 36h-4.175l-.428-2.556h-5.352zm23.23-6.604l1.177-5.751h3.961L86.067 36h-3.961l1.392-6.071h-5.674L76.539 36h-3.96l3.211-14.911h3.854l-1.178 5.751h5.674zm16.807-5.751h4.924l-7.493 7.03L103.195 36h-5.138l-3.64-6.497L93.026 36h-3.961l3.211-14.911h3.961l-1.391 6.177h.106l5.995-6.177z" fill="#000"/></svg>