<svg width="21" height="20" fill="none" xmlns="http://www.w3.org/2000/svg"><path d="M21 8.4c0-.558-.221-1.094-.615-1.489a2.097 2.097 0 00-1.485-.616h-1.175L12.602 0H.004v2.105H11.73l3.339 4.21H8.717L6.702 8.422l5.06 4.758-.557.768C9.652 13.19 4.907 10.737 3.143 9a3.506 3.506 0 01-1.05-2.674H.004a5.666 5.666 0 001.648 4.21c1.743 1.738 6.656 4.327 8.714 5.359a1.98 1.98 0 002.519-.642l.85-1.306a2.11 2.11 0 00-.776-2.547L9.715 8.379H18.9v2.105h-5.249l.61.505c.44.434.736.992.85 1.6h3.79v5.264H5.252v-2.969l-2.1-1.2v4.21A2.1 2.1 0 005.252 20H18.9a2.105 2.105 0 002.1-2.105V8.4z" fill="#2B2D33"/></svg>