<svg width="24" height="24" fill="none" xmlns="http://www.w3.org/2000/svg"><path d="M21.333 21.274v-3.117l-3.736-1.868-2.962 2.962c2.132 1.103 4.407 1.82 6.698 2.023zm-9.055-3.438l4.112-4.112a1.333 1.333 0 011.54-.25l5.333 2.667c.452.226.737.687.737 1.192v5.334c0 .736-.597 1.333-1.333 1.333C11.264 24 0 12.736 0 1.333 0 .597.597 0 1.333 0h5.334c.505 0 .966.285 1.192.737l2.667 5.333a1.333 1.333 0 01-.25 1.54l-4.112 4.112a23.937 23.937 0 006.114 6.114zM7.711 6.403L5.843 2.667H2.726c.204 2.291.92 4.566 2.023 6.698l2.962-2.962z" fill="#2B2D33"/></svg>