<svg width="87" height="28" fill="none" xmlns="http://www.w3.org/2000/svg"><path d="M86.681 27.55h-6.523c-.24-1.15-.496-2.27-.704-3.405-.08-.464-.24-.656-.751-.64-2.623.032-5.23.032-7.852 0-.4 0-.56.128-.671.496a129.518 129.518 0 01-1.151 3.214c-.048.144-.24.336-.368.336-2.35.016-4.717.016-7.148.016.448-1.072.864-2.079 1.28-3.102 3.038-7.26 6.076-14.503 9.13-21.763C72.578 1.135 73.57.48 75.265.48h5.724c.192.88.384 1.759.56 2.622 1.503 7.164 2.99 14.343 4.493 21.507.192.911.416 1.822.623 2.75a.777.777 0 01.016.192zm-8.538-9.625c-.688-3.326-1.375-6.62-2.063-9.914-.032 0-.064-.016-.08-.016-1.199 3.294-2.382 6.588-3.597 9.93h5.74z" fill="url(#paint0_linear_1_185)"/><path d="M58.267 0c.864.16 1.727.288 2.575.496.783.176 1.535.431 2.366.671-.416 1.951-.815 3.854-1.215 5.709-1.087-.32-2.127-.688-3.198-.928-1.471-.32-2.974-.447-4.43-.032-.591.16-1.199.48-1.662.88-.8.687-.816 1.679-.048 2.398.527.496 1.151.912 1.79 1.28 1.424.863 2.927 1.598 4.318 2.526 1.63 1.087 2.83 2.558 3.07 4.573.448 3.55-.864 6.348-3.854 8.33-1.87 1.248-3.997 1.808-6.204 2-3.086.287-6.108-.064-9.066-1.024a8.54 8.54 0 01-.576-.224c-.064-.016-.112-.064-.192-.128.416-1.95.832-3.901 1.264-5.916.495.224.975.432 1.455.64 2.302.927 4.685 1.359 7.147.895a5.2 5.2 0 001.84-.767c1.182-.784 1.294-2.271.223-3.214-.704-.608-1.551-1.056-2.367-1.551-1.263-.768-2.59-1.424-3.79-2.271-1.518-1.103-2.622-2.558-2.845-4.51-.32-2.91.767-5.276 3.006-7.115C49.824 1.12 52.127.4 54.589.112c.144-.016.272-.064.4-.096A222.92 222.92 0 0158.267 0z" fill="url(#paint1_linear_1_185)"/><path d="M32.891.495c-.367.88-.72 1.727-1.071 2.559-3.358 8.01-6.716 16.022-10.058 24.033-.16.384-.351.48-.735.48a270.013 270.013 0 00-6.364 0c-.448 0-.592-.145-.704-.56-1.79-7.004-3.63-13.992-5.404-20.995-.32-1.28-.976-2.159-2.207-2.702C4.381 2.446 2.351 1.839.272 1.343.176 1.327.096 1.295 0 1.279.016.463.016.463.784.463h11.128c1.76 0 3.023 1.024 3.358 2.767.944 4.925 1.855 9.865 2.799 14.79.048.208.08.432.144.736.095-.176.16-.288.207-.4C20.723 12.536 23.025 6.7 25.312.88c.128-.32.272-.432.624-.416 2.158.016 4.301.016 6.46.016.16 0 .303.016.495.016z" fill="url(#paint2_linear_1_185)"/><path d="M30.093 27.567c1.935-9.05 3.854-18.037 5.788-27.055h7.02a862.86 862.86 0 01-.864 4.061c-1.599 7.451-3.181 14.887-4.764 22.338-.113.512-.288.688-.832.672-1.919-.032-3.854-.016-5.772-.016h-.576z" fill="url(#paint3_linear_1_185)"/><defs><linearGradient id="paint0_linear_1_185" x1="4.878" y1="14.514" x2="86.226" y2="13.979" gradientUnits="userSpaceOnUse"><stop stop-color="#262860"/><stop offset="1" stop-color="#3D429B"/></linearGradient><linearGradient id="paint1_linear_1_185" x1="4.876" y1="14.31" x2="86.224" y2="13.774" gradientUnits="userSpaceOnUse"><stop stop-color="#262860"/><stop offset="1" stop-color="#3D429B"/></linearGradient><linearGradient id="paint2_linear_1_185" x1="4.875" y1="14.064" x2="86.223" y2="13.529" gradientUnits="userSpaceOnUse"><stop stop-color="#262860"/><stop offset="1" stop-color="#3D429B"/></linearGradient><linearGradient id="paint3_linear_1_185" x1="4.876" y1="14.249" x2="86.224" y2="13.714" gradientUnits="userSpaceOnUse"><stop stop-color="#262860"/><stop offset="1" stop-color="#3D429B"/></linearGradient></defs></svg>